<?xml version="1.0" standalone="no"?>
<!DOCTYPE svg PUBLIC "-//W3C//DTD SVG 20010904//EN"
 "http://www.w3.org/TR/2001/REC-SVG-20010904/DTD/svg10.dtd">
<svg version="1.0" xmlns="http://www.w3.org/2000/svg"
 width="500.000000pt" height="500.000000pt" viewBox="0 0 500.000000 500.000000"
 preserveAspectRatio="xMidYMid meet">
<metadata>
Created by potrace 1.11, written by Peter Selinger 2001-2013
</metadata>
<g transform="translate(0.000000,500.000000) scale(0.100000,-0.100000)"
fill="#000000" stroke="none">
<path d="M2248 3497 l-367 -292 -1 -465 c0 -256 -5 -498 -10 -539 -10 -79 -33
-127 -93 -196 -44 -51 -50 -46 -122 100 -69 141 -111 299 -124 465 -19 253 27
433 161 627 61 90 225 257 316 323 34 24 62 48 62 51 0 4 -8 17 -18 29 l-19
23 -94 -56 c-460 -270 -690 -611 -724 -1072 -7 -98 8 -293 31 -390 66 -287
233 -544 469 -721 373 -279 893 -308 1297 -73 152 89 315 244 426 407 66 96
69 104 50 120 -10 7 -38 -6 -103 -50 -232 -154 -501 -247 -763 -264 l-102 -7
0 568 0 567 133 -6 c72 -3 213 -8 312 -11 l180 -6 98 172 c75 131 95 174 85
180 -7 5 -99 9 -205 9 -111 0 -194 4 -198 10 -3 5 113 130 258 277 315 320
310 307 134 316 -62 3 -150 14 -197 22 -115 22 -298 84 -398 134 -45 22 -87
41 -94 40 -7 0 -178 -132 -380 -292z m192 -982 c0 -950 -1 -985 -18 -985 -34
0 -171 39 -242 69 -112 47 -218 119 -307 207 -46 46 -83 87 -83 91 0 5 65 64
144 131 170 144 206 182 246 262 57 112 60 142 60 620 l0 435 93 77 c50 42 95
77 100 77 4 1 7 -442 7 -984z m177 900 c97 -49 262 -106 363 -125 36 -7 68
-16 72 -19 4 -4 -114 -128 -262 -276 l-270 -270 0 368 c0 202 2 367 4 367 3 0
44 -20 93 -45z"/>
</g>
</svg>
